<svg width="798" height="714" viewBox="0 0 798 714" fill="none" xmlns="http://www.w3.org/2000/svg">
<path d="M229.302 165.283C249.95 155.518 273.426 171.767 271.559 194.532L258.115 358.436C256.248 381.2 230.438 393.407 211.657 380.408L76.4337 286.813C57.6527 273.814 59.9867 245.358 80.6349 235.593L229.302 165.283Z" stroke="#00ADC0" stroke-opacity="0.1" stroke-width="25"/>
<line x1="7.5" y1="56.5" x2="159.5" y2="56.5" stroke="#0193A1" stroke-opacity="0.2" stroke-width="15" stroke-linecap="round" stroke-dasharray="0.2 35"/>
<line x1="7.5" y1="24.5" x2="159.5" y2="24.5" stroke="#0193A1" stroke-opacity="0.2" stroke-width="15" stroke-linecap="round" stroke-dasharray="0.2 35"/>
<line x1="7.5" y1="88.5" x2="159.5" y2="88.5" stroke="#0193A1" stroke-opacity="0.2" stroke-width="15" stroke-linecap="round" stroke-dasharray="0.2 35"/>
<line x1="7.5" y1="120.5" x2="159.5" y2="120.5" stroke="#0193A1" stroke-opacity="0.2" stroke-width="15" stroke-linecap="round" stroke-dasharray="0.2 35"/>
<line x1="621.5" y1="642.5" x2="773.5" y2="642.5" stroke="#0193A1" stroke-opacity="0.3" stroke-width="15" stroke-linecap="round" stroke-dasharray="0.2 35"/>
<line x1="621.5" y1="610.5" x2="773.5" y2="610.5" stroke="#0193A1" stroke-opacity="0.3" stroke-width="15" stroke-linecap="round" stroke-dasharray="0.2 35"/>
<line x1="621.5" y1="674.5" x2="773.5" y2="674.5" stroke="#0193A1" stroke-opacity="0.3" stroke-width="15" stroke-linecap="round" stroke-dasharray="0.2 35"/>
<line x1="621.5" y1="706.5" x2="773.5" y2="706.5" stroke="#0193A1" stroke-opacity="0.3" stroke-width="15" stroke-linecap="round" stroke-dasharray="0.2 35"/>
<path d="M691 33C691 28.5817 694.582 25 699 25H798V154H699C694.582 154 691 150.418 691 146V33Z" fill="white" fill-opacity="0.3"/>
<rect x="708" y="196" width="53" height="90" rx="8" fill="white" fill-opacity="0.3"/>
<rect x="592" y="63" width="79" height="75" rx="8" fill="white" fill-opacity="0.3"/>
<rect x="524" y="91" width="44" height="80" rx="8" fill="white" fill-opacity="0.3"/>
<rect x="491" y="215" width="118" height="51" rx="8" fill="white" fill-opacity="0.3"/>
<rect x="455" y="75" width="26" height="25" rx="8" fill="white" fill-opacity="0.3"/>
<rect x="419" y="209" width="26" height="25" rx="8" fill="white" fill-opacity="0.3"/>
<rect x="357" y="48" width="26" height="25" rx="8" fill="white" fill-opacity="0.3"/>
<path d="M481 0H632V40C632 44.4183 628.418 48 624 48H489C484.582 48 481 44.4183 481 40V0Z" fill="white" fill-opacity="0.3"/>
<rect x="715" y="339" width="30" height="29" rx="8" fill="white" fill-opacity="0.3"/>
<path d="M136.239 570.056H665.846" stroke="#2C2F2F" stroke-linecap="round" stroke-linejoin="round"/>
<path d="M536.492 86.1731H432.168V478.253H536.492V86.1731Z" stroke="#2C2F2F" stroke-linecap="round" stroke-linejoin="round"/>
<path d="M669.008 86.1731H429.52C429.1 86.1731 428.696 86.0059 428.399 85.7084C428.101 85.4109 427.934 85.0073 427.934 84.5865C427.934 84.1658 428.101 83.7622 428.399 83.4647C428.696 83.1672 429.1 83 429.52 83H669.008C669.429 83 669.834 83.1668 670.134 83.464C670.433 83.7612 670.603 84.1647 670.606 84.5865C670.603 85.0084 670.433 85.4119 670.134 85.7091C669.834 86.0063 669.429 86.1731 669.008 86.1731V86.1731Z" fill="#2C2F2F" stroke="#2C2F2F" stroke-linecap="round" stroke-linejoin="round"/>
<path d="M536.332 381.828H664.214" stroke="#2C2F2F" stroke-linecap="round" stroke-linejoin="round"/>
<path d="M536.332 374.215H664.214" stroke="#2C2F2F" stroke-linecap="round" stroke-linejoin="round"/>
<path d="M536.332 226.599H664.214" stroke="#2C2F2F" stroke-linecap="round" stroke-linejoin="round"/>
<path d="M536.332 233.299H664.214" stroke="#2C2F2F" stroke-linecap="round" stroke-linejoin="round"/>
<path d="M439.736 86.7552V116.865" stroke="#2C2F2F" stroke-linecap="round" stroke-linejoin="round"/>
<path d="M444.621 91.218V285.54" stroke="#2C2F2F" stroke-linecap="round" stroke-linejoin="round"/>
<path d="M456.469 86.39V109.8" stroke="#2C2F2F" stroke-linecap="round" stroke-linejoin="round"/>
<path d="M456.469 115.37V128.382" stroke="#2C2F2F" stroke-linecap="round" stroke-linejoin="round"/>
<path d="M525.808 120.575V126.156" stroke="#2C2F2F" stroke-linecap="round" stroke-linejoin="round"/>
<path d="M525.808 86.7552V115.37" stroke="#2C2F2F" stroke-linecap="round" stroke-linejoin="round"/>
<path d="M469.355 149.189V153.652" stroke="#2C2F2F" stroke-linecap="round" stroke-linejoin="round"/>
<path d="M469.355 91.5947V143.985" stroke="#2C2F2F" stroke-linecap="round" stroke-linejoin="round"/>
<path d="M477.025 91.218V107.574" stroke="#2C2F2F" stroke-linecap="round" stroke-linejoin="round"/>
<path d="M516.746 91.218V107.574" stroke="#2C2F2F" stroke-linecap="round" stroke-linejoin="round"/>
<path d="M486.784 86.39V226.188" stroke="#2C2F2F" stroke-linecap="round" stroke-linejoin="round"/>
<path d="M499.67 87.1318V94.5623" stroke="#2C2F2F" stroke-linecap="round" stroke-linejoin="round"/>
<path d="M507.341 87.1318V186.239" stroke="#2C2F2F" stroke-linecap="round" stroke-linejoin="round"/>
<path d="M495.493 93.0785V113.886" stroke="#2C2F2F" stroke-linecap="round" stroke-linejoin="round"/>
<path d="M561.032 206.236L558.338 209.592" stroke="#2C2F2F" stroke-linecap="round" stroke-linejoin="round"/>
<path d="M617.405 138.905L565.381 200.815" stroke="#2C2F2F" stroke-linecap="round" stroke-linejoin="round"/>
<path d="M605.74 174.779L585.743 198.486" stroke="#2C2F2F" stroke-linecap="round" stroke-linejoin="round"/>
<path d="M561.032 353.853L558.338 357.22" stroke="#2C2F2F" stroke-linecap="round" stroke-linejoin="round"/>
<path d="M619.38 281.249L565.381 348.431" stroke="#2C2F2F" stroke-linecap="round" stroke-linejoin="round"/>
<path d="M605.74 322.407L585.743 346.103" stroke="#2C2F2F" stroke-linecap="round" stroke-linejoin="round"/>
<path d="M627.29 233.356V372.184" stroke="#2C2F2F" stroke-linecap="round" stroke-linejoin="round"/>
<path d="M627.29 85.5225V226.325" stroke="#2C2F2F" stroke-linecap="round" stroke-linejoin="round"/>
<path d="M634.207 233.527V372.184" stroke="#2C2F2F" stroke-linecap="round" stroke-linejoin="round"/>
<path d="M634.207 85.5225V226.256" stroke="#2C2F2F" stroke-linecap="round" stroke-linejoin="round"/>
<path d="M391.215 199.924H155.848V205.746H391.215V199.924Z" stroke="#2C2F2F" stroke-linecap="round" stroke-linejoin="round"/>
<path d="M414.522 254.688H132.552V260.51H414.522V254.688Z" stroke="#2C2F2F" stroke-linecap="round" stroke-linejoin="round"/>
<path d="M179.544 134.523V199.776H234.707V134.523H179.544ZM232.493 197.162H181.747V137.125H232.493V197.162Z" fill="#2C2F2F" stroke="#2C2F2F" stroke-linecap="round" stroke-linejoin="round"/>
<path d="M273.149 209.638V254.152H310.815V209.638H273.149ZM309.263 252.371H274.656V211.407H309.275L309.263 252.371Z" fill="#2C2F2F" stroke="#2C2F2F" stroke-linecap="round" stroke-linejoin="round"/>
<path d="M246.349 160.969V199.776H279.222V160.969H246.349ZM275.272 195.21H250.253V165.534H275.272V195.21Z" fill="#2C2F2F" stroke="#2C2F2F" stroke-linecap="round" stroke-linejoin="round"/>
<path d="M150.027 215.299V254.106H182.854V215.299H150.027ZM178.95 249.541H153.931V219.922H178.95V249.541Z" fill="#2C2F2F" stroke="#2C2F2F" stroke-linecap="round" stroke-linejoin="round"/>
<path d="M191.973 228.87V254.141H213.34V228.87H191.973ZM210.795 251.139H194.519V231.883H210.795V251.139Z" fill="#2C2F2F" stroke="#2C2F2F" stroke-linecap="round" stroke-linejoin="round"/>
<path d="M239.353 228.87V254.141H260.72V228.87H239.353ZM258.174 251.139H241.898V231.883H258.174V251.139Z" fill="#2C2F2F" stroke="#2C2F2F" stroke-linecap="round" stroke-linejoin="round"/>
<path d="M321.385 182.393H333.826C334.604 182.393 335.35 182.702 335.9 183.252C336.45 183.802 336.759 184.548 336.759 185.326V199.776H318.497V185.337C318.494 184.565 318.795 183.823 319.336 183.272C319.876 182.721 320.613 182.405 321.385 182.393V182.393Z" stroke="#2C2F2F" stroke-linecap="round" stroke-linejoin="round"/>
<path d="M333.13 178.295H322.081V182.267H333.13V178.295Z" stroke="#2C2F2F" stroke-linecap="round" stroke-linejoin="round"/>
<path d="M329.854 178.169C331.505 174.026 333.45 170.006 335.675 166.139C338.403 161.859 345 158.366 349.269 158.366C353.538 158.366 361.699 163.023 367.143 169.244" stroke="#2C2F2F" stroke-linecap="round" stroke-linejoin="round"/>
<path d="M345 159.53C345 159.53 347.283 151.769 354.325 148.653C361.368 145.537 368.308 146.713 369.472 145.548" stroke="#2C2F2F" stroke-linecap="round" stroke-linejoin="round"/>
<path d="M326.201 178.09C326.187 174.915 325.151 171.829 323.245 169.289C320.141 165.409 312.767 163.845 308.099 167.007C305.141 169.042 302.522 171.531 300.337 174.38" stroke="#2C2F2F" stroke-linecap="round" stroke-linejoin="round"/>
<path d="M313.931 165.751C313.931 165.751 308.898 170.796 307.756 175.807C307.111 179.289 307.244 182.871 308.145 186.296" stroke="#2C2F2F" stroke-linecap="round" stroke-linejoin="round"/>
<path d="M335.675 166.139C339.693 158.595 338.802 149.749 341.827 141.907C344.955 133.815 352.008 129.443 360.535 128.85" stroke="#2C2F2F" stroke-linecap="round" stroke-linejoin="round"/>
<path d="M300.999 173.41C300.999 173.41 297.803 173.41 296.742 175.955C296.103 177.575 295.883 179.33 296.103 181.057C297.003 180.855 297.841 180.439 298.544 179.842C299.248 179.246 299.797 178.488 300.143 177.633C301.422 174.665 300.999 173.41 300.999 173.41Z" fill="#00ADC0"/>
<path d="M306.843 167.6C306.843 167.6 305.611 164.655 302.848 164.667C301.107 164.7 299.402 165.175 297.895 166.048C298.426 166.799 299.132 167.41 299.951 167.829C300.769 168.248 301.677 168.464 302.597 168.456C305.827 168.49 306.843 167.6 306.843 167.6Z" fill="#00ADC0"/>
<path d="M306.798 180.03C306.798 180.03 304.047 178.409 301.833 180.03C300.455 181.095 299.371 182.494 298.682 184.093C299.557 184.38 300.489 184.451 301.397 184.3C302.305 184.149 303.164 183.78 303.899 183.226C306.512 181.343 306.798 180.03 306.798 180.03Z" fill="#00ADC0"/>
<path d="M307.985 185.28C307.985 185.28 305.576 187.38 306.444 189.994C307.027 191.637 308.017 193.105 309.32 194.263C309.865 193.523 310.224 192.663 310.365 191.754C310.506 190.846 310.425 189.917 310.131 189.047C309.138 185.965 307.985 185.28 307.985 185.28Z" fill="#00ADC0"/>
<path d="M307.859 174.152C307.859 174.152 307.049 177.234 309.24 178.911C310.643 179.941 312.285 180.597 314.011 180.818C314.044 179.897 313.853 178.982 313.456 178.152C313.058 177.321 312.466 176.599 311.728 176.046C309.195 174.06 307.859 174.152 307.859 174.152Z" fill="#00ADC0"/>
<path d="M310.736 165.021C310.736 165.021 311.694 161.984 309.594 160.193C308.243 159.096 306.638 158.358 304.926 158.047C304.846 158.962 304.987 159.883 305.339 160.731C305.691 161.58 306.242 162.331 306.946 162.92C309.389 165.043 310.736 165.021 310.736 165.021Z" fill="#00ADC0"/>
<path d="M316.454 165.329C316.454 165.329 318.816 163.194 317.903 160.581C317.285 158.964 316.273 157.528 314.959 156.403C314.425 157.151 314.08 158.017 313.953 158.927C313.825 159.837 313.92 160.765 314.228 161.631C315.278 164.667 316.454 165.329 316.454 165.329Z" fill="#00ADC0"/>
<path d="M348.767 152.568C348.767 152.568 351.129 150.434 350.216 147.831C349.606 146.198 348.593 144.746 347.272 143.608C346.738 144.358 346.394 145.227 346.269 146.139C346.143 147.052 346.241 147.981 346.552 148.847C347.591 151.906 348.767 152.568 348.767 152.568Z" fill="#00ADC0"/>
<path d="M358.126 147.683C358.126 147.683 360.489 145.548 359.576 142.935C358.963 141.306 357.95 139.858 356.631 138.723C356.097 139.471 355.752 140.337 355.625 141.247C355.498 142.157 355.592 143.085 355.9 143.95C356.951 147.021 358.126 147.683 358.126 147.683Z" fill="#00ADC0"/>
<path d="M365.967 146.188C365.967 146.188 368.33 144.053 367.417 141.451C366.802 139.82 365.79 138.368 364.472 137.228C363.939 137.978 363.594 138.847 363.469 139.759C363.344 140.671 363.441 141.6 363.753 142.467C364.826 145.526 365.967 146.188 365.967 146.188Z" fill="#00ADC0"/>
<path d="M313.041 173.775C313.041 173.775 316.237 173.672 317.219 171.093C317.807 169.452 317.968 167.688 317.687 165.968C316.797 166.196 315.975 166.636 315.291 167.25C314.608 167.864 314.082 168.634 313.76 169.495C312.585 172.52 313.041 173.775 313.041 173.775Z" fill="#00ADC0"/>
<path d="M364.495 153.321C364.495 153.321 365.203 150.217 362.954 148.607C361.521 147.618 359.859 147.009 358.126 146.838C358.119 147.758 358.334 148.666 358.753 149.485C359.173 150.304 359.784 151.009 360.534 151.541C363.148 153.447 364.495 153.321 364.495 153.321Z" fill="#00ADC0"/>
<path d="M372.142 153.116C372.142 153.116 372.862 150 370.613 148.391C369.179 147.403 367.518 146.795 365.785 146.621C365.784 147.546 366.008 148.458 366.437 149.277C366.867 150.096 367.489 150.799 368.25 151.324C370.807 153.241 372.142 153.116 372.142 153.116Z" fill="#00ADC0"/>
<path d="M304.572 177.382C304.572 177.382 307.391 175.898 307.14 173.147C306.948 171.415 306.324 169.759 305.325 168.331C304.624 168.926 304.077 169.683 303.731 170.535C303.386 171.388 303.251 172.311 303.339 173.227C303.602 176.457 304.572 177.382 304.572 177.382Z" fill="#00ADC0"/>
<path d="M337.102 172.714C337.102 172.714 339.921 171.218 339.67 168.468C339.478 166.735 338.854 165.079 337.855 163.651C337.154 164.247 336.607 165.003 336.261 165.856C335.915 166.708 335.781 167.632 335.869 168.548C336.132 171.778 337.102 172.714 337.102 172.714Z" fill="#00ADC0"/>
<path d="M330.984 162.795C330.984 162.795 328.701 165.078 329.694 167.589C330.36 169.199 331.424 170.613 332.787 171.698C333.293 170.93 333.606 170.052 333.699 169.138C333.792 168.224 333.664 167.301 333.324 166.447C332.171 163.423 330.984 162.795 330.984 162.795Z" fill="#00ADC0"/>
<path d="M344.977 168.034C344.977 168.034 347.797 166.539 347.545 163.788C347.354 162.057 346.725 160.404 345.719 158.983C345.022 159.578 344.478 160.333 344.134 161.184C343.791 162.034 343.657 162.955 343.745 163.868C343.996 167.098 344.977 168.034 344.977 168.034Z" fill="#00ADC0"/>
<path d="M354.554 168.045C354.554 168.045 356.905 165.888 355.957 163.286C355.327 161.661 354.299 160.22 352.967 159.097C352.428 159.856 352.082 160.735 351.961 161.658C351.84 162.581 351.946 163.52 352.271 164.393C353.321 167.395 354.554 168.045 354.554 168.045Z" fill="#00ADC0"/>
<path d="M361.938 172.086C361.938 172.086 364.29 169.929 363.342 167.326C362.712 165.701 361.684 164.261 360.352 163.137C359.828 163.893 359.494 164.763 359.379 165.676C359.263 166.588 359.37 167.514 359.69 168.376C360.763 171.435 361.938 172.086 361.938 172.086Z" fill="#00ADC0"/>
<path d="M371.469 162.92C371.469 162.92 369.46 160.455 366.812 161.243C365.15 161.771 363.649 162.713 362.452 163.982C363.176 164.55 364.026 164.935 364.93 165.104C365.834 165.273 366.766 165.221 367.645 164.952C370.75 164.062 371.469 162.92 371.469 162.92Z" fill="#00ADC0"/>
<path d="M361.459 135.196C361.459 135.196 361.459 132.011 358.891 130.95C357.269 130.318 355.514 130.106 353.789 130.334C353.992 131.232 354.41 132.067 355.006 132.769C355.602 133.47 356.36 134.017 357.213 134.363C360.181 135.63 361.459 135.196 361.459 135.196Z" fill="#00ADC0"/>
<path d="M357.624 122.253C357.624 122.253 354.462 122.686 353.755 125.357C353.34 127.051 353.364 128.823 353.823 130.505C354.686 130.184 355.458 129.66 356.074 128.976C356.69 128.292 357.132 127.47 357.361 126.578C358.217 123.462 357.624 122.253 357.624 122.253Z" fill="#00ADC0"/>
<path d="M352.739 139.453C352.739 139.453 352.739 136.257 350.182 135.207C348.559 134.567 346.799 134.351 345.069 134.58C345.272 135.478 345.69 136.313 346.286 137.015C346.882 137.716 347.639 138.263 348.493 138.609C351.472 139.876 352.739 139.453 352.739 139.453Z" fill="#00ADC0"/>
<path d="M348.904 126.499C348.904 126.499 345.742 126.944 345.034 129.615C344.627 131.305 344.65 133.071 345.103 134.751C345.964 134.431 346.736 133.908 347.352 133.227C347.968 132.545 348.41 131.725 348.641 130.836C349.497 127.708 348.904 126.499 348.904 126.499Z" fill="#00ADC0"/>
<path d="M349.486 144.738C349.486 144.738 347.511 142.238 344.852 142.992C343.185 143.492 341.673 144.407 340.457 145.651C341.17 146.231 342.012 146.631 342.912 146.816C343.813 147 344.744 146.965 345.628 146.713C348.755 145.868 349.486 144.738 349.486 144.738Z" fill="#00ADC0"/>
<path d="M338.46 136.999C338.46 136.999 336.246 139.282 337.319 141.827C338.041 143.413 339.152 144.791 340.549 145.834C341.029 145.048 341.311 144.159 341.373 143.241C341.435 142.322 341.273 141.403 340.903 140.561C339.716 137.524 338.46 136.999 338.46 136.999Z" fill="#00ADC0"/>
<path d="M347.146 155.581C347.146 155.581 345.171 153.082 342.512 153.835C340.847 154.339 339.336 155.254 338.118 156.494C338.83 157.075 339.673 157.474 340.573 157.659C341.473 157.844 342.405 157.808 343.288 157.556C346.416 156.711 347.146 155.581 347.146 155.581Z" fill="#00ADC0"/>
<path d="M336.12 147.786C336.12 147.786 333.906 150.068 334.979 152.614C335.702 154.199 336.812 155.577 338.209 156.62C338.689 155.835 338.971 154.945 339.033 154.027C339.095 153.109 338.933 152.189 338.563 151.347C337.341 148.413 336.12 147.786 336.12 147.786Z" fill="#00ADC0"/>
<path d="M362.543 158.241C362.543 158.241 360.523 155.775 357.875 156.563C356.213 157.091 354.712 158.034 353.515 159.302C354.238 159.871 355.088 160.256 355.993 160.424C356.897 160.593 357.828 160.541 358.708 160.272C361.824 159.382 362.543 158.241 362.543 158.241Z" fill="#00ADC0"/>
<path d="M357.441 152.979C357.441 152.979 355.421 150.502 352.773 151.301C351.113 151.829 349.614 152.767 348.413 154.029C349.135 154.599 349.985 154.986 350.889 155.157C351.793 155.328 352.726 155.278 353.606 155.011C356.722 154.12 357.441 152.979 357.441 152.979Z" fill="#00ADC0"/>
<path d="M377.381 144.635C377.381 144.635 375.361 142.17 372.713 142.957C371.051 143.486 369.55 144.428 368.353 145.697C369.076 146.265 369.926 146.65 370.831 146.819C371.735 146.988 372.667 146.936 373.546 146.667C376.708 145.777 377.381 144.635 377.381 144.635Z" fill="#00ADC0"/>
<path d="M368.707 127.868C368.707 127.868 366.687 125.391 364.039 126.179C362.382 126.712 360.886 127.654 359.69 128.918C360.411 129.487 361.259 129.873 362.161 130.044C363.063 130.215 363.993 130.165 364.872 129.9C367.988 129.01 368.707 127.868 368.707 127.868Z" fill="#00ADC0"/>
<path d="M368.741 178.09C368.741 178.09 371.092 175.932 370.145 173.341C369.52 171.714 368.491 170.272 367.155 169.152C366.63 169.908 366.297 170.779 366.181 171.691C366.066 172.603 366.173 173.529 366.493 174.391C367.566 177.382 368.741 178.09 368.741 178.09Z" fill="#00ADC0"/>
<path d="M338.723 254.141H350.89C355.01 251.344 357.818 245.786 357.818 239.382C357.863 235.525 356.767 231.741 354.668 228.505H334.945C332.845 231.741 331.749 235.525 331.794 239.382C331.794 245.786 334.602 251.344 338.723 254.141Z" stroke="#2C2F2F" stroke-linecap="round" stroke-linejoin="round"/>
<path d="M378.021 211.966H370.248V254.689H378.021V211.966Z" stroke="#2C2F2F" stroke-linecap="round" stroke-linejoin="round"/>
<path d="M386.558 211.966H378.785V254.689H386.558V211.966Z" stroke="#2C2F2F" stroke-linecap="round" stroke-linejoin="round"/>
<path d="M395.107 211.966H387.334V254.689H395.107V211.966Z" stroke="#2C2F2F" stroke-linecap="round" stroke-linejoin="round"/>
<path d="M182.123 450.997C179.037 444.513 178.342 437.147 180.16 430.201C183.173 418.353 184.269 420.339 181.13 413.513C177.991 406.688 175.275 405.295 177.147 399.44C179.019 393.585 182.237 384.431 181.073 378.895C179.909 373.359 177.375 371.076 178.516 365.084C179.658 359.092 183.185 356.204 181.461 349.664C179.738 343.124 176.724 343.432 177.866 337.428C179.007 331.424 180.605 330.968 180.149 325.546C179.692 320.125 180.947 317.556 180.947 317.556C180.947 317.556 183.013 326.037 184.372 330.728C185.73 335.419 185.924 338.124 185.273 341.549C184.623 344.973 192.384 350.908 192.613 353.613C192.841 356.318 194.496 359.32 191.916 365.027C189.337 370.734 188.686 374.158 190.17 378.005C191.654 381.851 193.263 381.258 191.791 388.973C190.318 396.689 185.855 396.712 189.166 402.67C192.476 408.628 194.462 409.895 192.932 414.084C191.403 418.273 188.983 423.101 189.919 425.943C190.463 427.356 191.128 428.719 191.905 430.018C193.803 433.385 194.439 437.319 193.697 441.112L193.252 443.452L194.701 455.266L187.659 461.03C187.659 461.03 184.395 458.541 182.123 450.997Z" fill="#00ADC0"/>
<path d="M173.997 452.024C171.958 449.758 170.392 447.107 169.391 444.228C168.389 441.349 167.972 438.299 168.164 435.257C168.894 425.053 170.355 426.514 165.984 421.412C161.612 416.31 158.69 415.591 159.421 410.489C160.151 405.387 161.612 397.374 159.421 393.003C157.229 388.631 154.319 387.17 154.319 382.068C154.319 376.966 157.241 374.078 154.319 368.953C151.397 363.829 148.486 364.582 148.486 359.48C148.486 354.378 149.947 350.006 148.486 345.635C147.025 341.263 147.984 342.211 147.984 342.211C147.984 342.211 151.408 349.321 153.588 352.962C155.768 356.604 156.51 358.795 156.51 361.706C156.51 364.616 165.253 368.269 165.984 370.449C166.714 372.629 168.894 374.832 167.433 379.922C165.973 385.013 165.984 387.912 168.164 390.857C170.344 393.802 171.805 393.048 171.805 399.6C171.805 406.151 167.433 406.882 171.805 411.265C176.177 415.648 178.368 416.356 177.638 420.008C176.907 423.66 175.457 427.998 176.907 430.201C177.457 430.964 178.067 431.682 178.733 432.346C181.764 435.47 183.462 439.648 183.47 444V444L187.111 453.474L181.279 459.306C181.279 459.306 177.638 457.845 173.997 452.024Z" fill="#00ADC0"/>
<path d="M215.532 452.024C217.567 449.756 219.13 447.105 220.13 444.226C221.129 441.347 221.545 438.298 221.353 435.257C220.634 425.053 219.173 426.514 223.544 421.412C227.916 416.31 230.827 415.591 230.107 410.489C229.388 405.387 227.916 397.374 230.107 393.003C232.299 388.631 235.198 387.17 235.198 382.068C235.198 376.966 232.288 374.078 235.198 368.953C238.109 363.829 241.031 364.582 241.031 359.48C241.031 354.378 239.57 350.006 241.031 345.635C242.492 341.263 240.745 343.763 240.745 343.763C240.745 343.763 238.12 349.276 235.929 352.894C233.737 356.512 233.018 358.727 233.018 361.637C233.018 364.548 224.275 368.2 223.544 370.38C222.814 372.56 220.634 374.763 222.083 379.854C223.533 384.944 223.544 387.844 221.353 390.788C219.161 393.733 217.712 392.98 217.712 399.531C217.712 406.083 222.083 406.814 217.712 411.196C213.34 415.579 211.16 416.287 211.891 419.94C212.621 423.592 214.071 427.929 212.61 430.132C212.075 430.887 211.476 431.594 210.818 432.244C207.759 435.406 206.052 439.635 206.058 444.034V444.034L202.417 453.508L208.238 459.34C208.238 459.34 211.879 457.845 215.532 452.024Z" fill="#00ADC0"/>
<path d="M202.68 453.85C204.004 451.779 204.902 449.465 205.322 447.042C205.741 444.62 205.673 442.138 205.122 439.743C203.205 431.753 202.235 433.065 205.042 428.431C207.85 423.797 210.076 422.827 208.82 418.867C207.565 414.906 205.396 408.708 206.538 404.942C207.679 401.175 209.836 399.623 209.163 395.559C208.489 391.496 205.739 389.567 207.439 385.116C209.14 380.664 211.503 380.87 210.863 376.818C210.224 372.766 208.455 369.467 209.049 365.792C209.642 362.116 208.352 363.075 208.352 363.075C207.761 366.19 206.957 369.26 205.944 372.263C204.677 375.448 204.392 377.286 204.803 379.603C205.214 381.92 198.708 385.983 198.411 387.809C198.114 389.635 196.665 391.679 198.502 395.548C200.34 399.417 200.716 401.734 199.358 404.348C198 406.962 196.744 406.562 197.6 411.79C198.456 417.018 202.04 417.018 199.141 421.069C196.242 425.121 194.576 426 195.649 428.797C196.722 431.593 198.445 434.892 197.566 436.786C196.269 438.949 194.783 440.992 193.126 442.893L194.085 448.691L192.43 456.681L197.84 460.55C197.84 460.55 200.545 458.975 202.68 453.85Z" fill="#00ADC0"/>
<path d="M224.058 447.915L222.346 490.649H217.598V523.601H169.511V490.649H165.071L163.359 447.915H224.058Z" fill="#2C2F2F" stroke="#2C2F2F" stroke-miterlimit="10"/>
<path d="M163.667 455.734L163.918 461.92H223.499L223.738 455.734H163.667Z" fill="white" stroke="#2C2F2F" stroke-miterlimit="10"/>
<path d="M223.042 473.174L223.202 469.236H164.215L164.375 473.174H223.042Z" fill="white" stroke="#2C2F2F" stroke-miterlimit="10"/>
<path d="M165.071 490.637H162.948V570.067H169.511V523.601" stroke="#2C2F2F" stroke-miterlimit="10"/>
<path d="M222.346 490.637H224.149V570.067H217.598V523.601" stroke="#2C2F2F" stroke-miterlimit="10"/>
<path d="M272.305 407.51C272.305 407.51 259.384 333.89 259.384 317.34C259.384 300.789 276.391 274.537 315.838 264.265C355.284 253.992 405.62 260.841 420.583 268.26C435.547 275.679 444.381 291.658 447.783 317.91C451.184 344.162 457.987 449.741 457.987 449.741L278.434 452.595L272.305 407.51Z" fill="#666666"/>
<path d="M486.077 549.396C482.241 553.573 477.667 557.005 472.585 559.521C464.596 563.31 460.772 567.51 461.171 570.478C461.571 573.446 466.239 573.902 474.24 574.279C482.242 574.655 510.502 573.434 515.148 573.434C519.793 573.434 523.571 572.167 523.571 568.366C523.571 564.565 522.727 554.875 522.727 554.875L486.077 549.396Z" fill="white" stroke="#2C2F2F" stroke-linecap="round" stroke-linejoin="round"/>
<path d="M502.935 570.056C488.028 570.056 467.997 569.2 461.354 568.914C461.186 569.421 461.131 569.959 461.194 570.489C461.617 573.446 466.262 573.913 474.263 574.29C482.264 574.667 510.525 573.446 515.171 573.446C519.348 573.446 522.841 572.407 523.48 569.416C519.006 569.725 512.18 570.056 502.935 570.056Z" fill="white" stroke="#2C2F2F" stroke-linecap="round" stroke-linejoin="round"/>
<path d="M526.128 364.308C526.128 364.308 510.525 428.397 510.525 433.454C510.525 438.51 525.284 461.703 525.706 479.828C526.128 497.954 519.382 533.383 520.649 537.172C521.916 540.962 524.074 543.495 523.594 546.874C523.115 550.252 521.916 559.098 521.916 559.098C521.916 559.098 516.004 559.521 503.78 556.987C496.823 555.611 490.034 553.491 483.531 550.663C483.531 550.663 482.687 541.806 482.687 540.128C482.687 538.45 484.376 534.216 484.798 530.849C485.221 527.482 483.531 494.587 480.164 477.306C476.797 460.025 470.462 437.665 470.462 425.863C470.462 414.061 470.04 372.321 470.04 372.321C478.193 366.705 486.794 361.769 495.756 357.562C510.936 350.394 521.483 354.195 521.483 354.195L526.128 364.308Z" fill="#3BABB8" stroke="#2C2F2F" stroke-linecap="round" stroke-linejoin="round"/>
<path opacity="0.6" d="M501.861 355C499.944 355.645 498.069 356.407 496.246 357.283C488.564 360.921 481.132 365.065 474 369.69L476.762 375.636C476.762 375.636 506.61 385.224 521.345 383.375L521.973 383.284C524.575 372.372 526.607 364.028 526.607 364.028L523.731 357.774C522.54 357.022 521.238 356.464 519.873 356.119C518.252 355.89 510.079 355.422 501.861 355Z" fill="#2C2F2F" stroke="#2C2F2F" stroke-linecap="round" stroke-linejoin="round"/>
<path d="M532.451 549.396C528.6 553.575 524.011 557.007 518.914 559.521C510.925 563.31 507.112 567.51 507.501 570.478C507.889 573.446 512.557 573.902 520.569 574.279C528.582 574.655 556.832 573.434 561.466 573.434C566.1 573.434 569.901 572.167 569.901 568.366C569.901 564.565 569.056 554.875 569.056 554.875L532.451 549.396Z" fill="white"/>
<path d="M549.31 570.056C534.403 570.056 514.372 569.2 507.729 568.914C507.56 569.421 507.506 569.959 507.569 570.489C507.991 573.446 512.625 573.913 520.638 574.29C528.651 574.667 556.9 573.446 561.534 573.446C565.723 573.446 569.204 572.407 569.855 569.416C565.381 569.725 558.555 570.056 549.31 570.056Z" fill="#2C2F2F" stroke="#2C2F2F" stroke-linecap="round" stroke-linejoin="round"/>
<path d="M572.56 364.308C572.56 364.308 556.957 428.397 556.957 433.454C556.957 438.51 571.715 461.703 572.138 479.828C572.56 497.954 565.814 533.383 567.07 537.172C568.326 540.962 570.494 543.495 570.026 546.874C569.558 550.252 568.337 559.098 568.337 559.098C568.337 559.098 562.436 559.521 550.212 556.987C543.259 555.61 536.474 553.491 529.975 550.663C529.975 550.663 529.13 541.806 529.13 540.128C529.13 538.45 530.819 534.216 531.242 530.849C531.664 527.482 529.975 494.587 526.596 477.306C523.218 460.025 516.906 437.665 516.906 425.863C516.906 414.061 516.483 372.321 516.483 372.321C524.635 366.702 533.236 361.766 542.199 357.562C557.38 350.394 567.915 354.195 567.915 354.195L572.56 364.308Z" fill="#3BABB8"/>
<path opacity="0.6" d="M558.129 353C552.426 353.347 546.848 354.817 541.716 357.326C532.752 361.529 524.151 366.466 516 372.084C516 372.084 516 376.901 516.114 383.715C518.796 384.274 526.204 385.37 540.335 384.525C555.926 383.589 565.685 380.553 568.321 379.64L569.143 376.216L569.44 361.663C569.44 361.663 562.432 355.91 558.129 353Z" fill="#2C2F2F" stroke="#2C2F2F" stroke-linecap="round" stroke-linejoin="round"/>
<path d="M481.774 232.272C481.774 232.272 471.501 235.41 468.933 237.122C466.365 238.835 462.37 252.246 461.228 255.385C460.087 258.524 454.095 274.788 454.095 274.788L463.797 276.786C463.797 276.786 463.511 286.488 464.938 290.483C466.365 294.477 476.637 306.462 476.637 306.462L480.347 316.449L476.352 371.807C476.352 371.807 490.905 379.511 515.445 381.794C539.985 384.077 556.82 381.794 558.818 380.653C560.001 379.973 561.242 379.4 562.527 378.941L564.239 370.951L566.807 378.37C570.013 378.071 573.173 377.401 576.224 376.372C579.648 374.946 584.784 372.092 584.784 372.092C584.784 372.092 574.226 332.143 569.661 321.3C565.095 310.457 557.391 293.621 557.391 293.621C557.391 293.621 553.967 254.529 547.118 241.403C540.27 228.277 527.429 224.852 518.298 223.996C509.167 223.14 481.774 232.272 481.774 232.272Z" fill="#2A4C50"/>
<path d="M560.336 253.958L551.684 262.518L546.833 253.673L560.336 253.958Z" fill="#2C2F2F" stroke="#2C2F2F" stroke-linecap="round" stroke-linejoin="round"/>
<path d="M522.67 261.183L526.094 291.236C526.094 291.236 476.637 300.755 471.307 300.367C464.948 299.684 458.522 300.737 452.714 303.415C445.101 306.839 441.3 308.745 441.676 310.64C442.053 312.534 445.477 318.629 445.477 318.629C445.477 318.629 451.949 319.017 452.326 317.876C452.576 317.008 452.707 316.109 452.714 315.205C452.714 315.205 459.562 315.593 462.598 314.064C464.547 313.058 466.343 311.778 467.928 310.263C467.928 310.263 507.877 313.31 523.092 313.687C538.307 314.064 555.816 312.922 557.722 310.263C559.628 307.603 550.874 253.193 550.874 253.193L522.67 261.183Z" fill="#FFBDA7" stroke="#DD977F" stroke-linecap="round" stroke-linejoin="round"/>
<path d="M471.307 300.367L472.197 310.491L476.717 311.199L475.758 299.774L471.307 300.367Z" fill="#B2DBDF" stroke="#0A93A3" stroke-linecap="round" stroke-linejoin="round"/>
<path d="M477.425 299.568C477.482 300.618 475.941 301.566 474.001 301.68C472.06 301.794 470.382 301.04 470.314 299.99C470.245 298.94 471.798 297.993 473.738 297.879C475.679 297.765 477.356 298.518 477.425 299.568Z" fill="#B2DBDF" stroke="#0A93A3" stroke-linecap="round" stroke-linejoin="round"/>
<path d="M452.668 315.205L448.627 314.064" stroke="#DD977F" stroke-linecap="round" stroke-linejoin="round"/>
<path d="M519.622 244.062L521.528 265.749L560.336 253.958C560.336 253.958 547.449 231.507 540.167 225.8C532.885 220.093 518.104 225.035 516.198 226.564" fill="#2A4C50"/>
<path d="M519.622 244.062L521.528 265.749L560.336 253.958C560.336 253.958 547.449 231.507 540.167 225.8C532.885 220.093 518.104 225.035 516.198 226.564" stroke="#2C2F2F" stroke-linecap="round" stroke-linejoin="round"/>
<path d="M445.534 172.063C445.534 172.063 431.552 185.189 437.259 191.467C442.966 197.744 450.956 201.739 452.097 208.873C453.239 216.007 455.521 220.287 452.383 226.565C449.244 232.842 446.961 234.269 446.961 234.269C446.961 234.269 460.372 241.117 468.933 240.547C477.493 239.976 489.763 230.274 489.763 230.274C489.763 230.274 509.738 229.989 518.583 222.284C527.429 214.58 527.144 201.454 523.434 192.323C519.725 183.192 506.884 172.383 500.652 165.534C494.42 158.686 482.104 154.12 469.264 155.547C456.423 156.974 445.534 172.063 445.534 172.063Z" fill="#2C2F2F" stroke="#2C2F2F" stroke-linecap="round" stroke-linejoin="round"/>
<path d="M477.824 233.128C477.824 233.128 480.392 239.691 482.105 245.683V245.683C485.701 258.272 493.099 259.231 496.647 246.629C497.912 242.139 498.992 238.007 499.796 235.696C501.158 231.826 502.021 227.799 502.364 223.711L494.66 205.734C492.244 211.14 488.748 215.995 484.387 220.001C477.539 225.994 475.827 228.847 475.827 228.847L477.824 233.128Z" fill="#FFBDA7" stroke="#2C2F2F" stroke-linecap="round" stroke-linejoin="round"/>
<path opacity="0.6" d="M479.103 235.707C479.103 235.707 490.893 232.386 496.052 227.968C501.211 223.551 501.577 222.433 501.577 222.433L495.31 210.642L479.103 235.707Z" fill="#2C2F2F" stroke="#2C2F2F" stroke-linecap="round" stroke-linejoin="round"/>
<path d="M447.246 194.891C447.246 194.891 452.383 207.732 453.239 211.441C454.095 215.151 457.234 222.284 462.084 226.565C466.935 230.845 470.074 236.552 477.779 235.41C485.483 234.269 494.9 220.572 496.612 216.292C498.324 212.012 494.329 200.312 494.329 198.886C494.306 198.451 494.16 198.033 493.907 197.679C493.654 197.325 493.305 197.051 492.902 196.888C492.902 196.888 479.205 202.31 469.789 198.315C463.498 195.501 457.561 191.957 452.097 187.757L447.246 194.891Z" fill="#FFBDA7" stroke="#2C2F2F" stroke-linecap="round" stroke-linejoin="round"/>
<path d="M486.339 201.739C486.339 201.739 490.049 192.037 495.47 193.179C500.892 194.32 500.321 203.737 497.468 207.161C494.614 210.585 492.331 208.873 492.331 208.873" fill="#FFBDA7"/>
<path d="M486.339 201.739C486.339 201.739 490.049 192.037 495.47 193.179C500.892 194.32 500.321 203.737 497.468 207.161C494.614 210.585 492.331 208.873 492.331 208.873" stroke="#2C2F2F" stroke-linecap="round" stroke-linejoin="round"/>
<path d="M462.986 204.342C463.351 206.126 463.542 207.942 463.557 209.763C463.557 212.617 462.13 217.182 464.698 218.324C467.266 219.465 470.976 218.324 471.832 216.897" stroke="#D38B73" stroke-linecap="round" stroke-linejoin="round"/>
<path d="M467.792 222.604C467.792 222.604 475.496 224.316 479.776 215.47" stroke="#D38B73" stroke-linecap="round" stroke-linejoin="round"/>
<path d="M471.216 206.305C472.641 206.844 474.208 206.884 475.659 206.417C477.111 205.951 478.361 205.006 479.205 203.737" stroke="#2C2F2F" stroke-linecap="round" stroke-linejoin="round"/>
<path d="M455.807 208.302C455.807 208.302 459.516 210.014 461.799 207.446" stroke="#2C2F2F" stroke-linecap="round" stroke-linejoin="round"/>
<path d="M461.514 202.881C461.514 202.881 457.804 200.312 454.665 203.451" stroke="#2C2F2F" stroke-linecap="round" stroke-linejoin="round"/>
<path d="M466.65 200.027C466.65 200.027 468.362 197.174 473.784 197.744" stroke="#2C2F2F" stroke-linecap="round" stroke-linejoin="round"/>
<path d="M412.468 274.629C412.468 274.629 422.741 276.911 426.165 290.231C429.589 303.552 446.299 357.288 446.299 357.288C446.299 357.288 463.979 367.39 469.31 368.154C474.64 368.919 479.194 369.296 479.582 375.003C479.97 380.71 478.441 389.841 475.393 391.359C472.346 392.877 460.932 392.888 452.565 392.5C444.199 392.112 438.869 390.218 434.303 387.181C429.737 384.145 424.795 354.081 419.465 339.62C414.135 325.158 403.337 295.208 404.478 287.606C405.62 280.005 408.667 274.629 412.468 274.629Z" fill="#0A93A3"/>
<path d="M452.714 399.52L445.375 398.972C442.424 398.748 439.46 399.141 436.67 400.126C433.88 401.111 431.326 402.666 429.17 404.692C427.014 406.718 425.304 409.171 424.148 411.894C422.991 414.618 422.415 417.552 422.455 420.51L423.825 568.743C423.834 569.875 424.29 570.958 425.094 571.756C425.898 572.553 426.984 573 428.117 573H495.253L512.489 398.949L452.714 399.52Z" fill="#333333" stroke="#2C2F2F" stroke-linecap="round" stroke-linejoin="round"/>
<path d="M495.23 573.012C494.098 573.012 493.012 572.564 492.208 571.767C491.404 570.97 490.948 569.887 490.939 568.754L489.569 420.522C489.529 417.563 490.105 414.629 491.261 411.906C492.417 409.182 494.128 406.729 496.284 404.703C498.44 402.677 500.994 401.122 503.784 400.138C506.574 399.153 509.538 398.76 512.488 398.983L519.827 399.531C522.722 399.75 525.541 400.557 528.112 401.903C530.684 403.249 532.953 405.105 534.783 407.359C536.612 409.612 537.962 412.215 538.75 415.008C539.539 417.801 539.749 420.726 539.368 423.603L520.056 569.245C519.923 570.277 519.418 571.225 518.637 571.912C517.855 572.599 516.85 572.978 515.81 572.978L495.23 573.012Z" fill="#666666"/>
<path d="M339.853 432.62H468.83C472.463 432.62 475.946 434.063 478.515 436.632C481.084 439.201 482.527 442.684 482.527 446.317V573.012H339.853V432.62Z" fill="#666666"/>
<path d="M427.934 377.982L434.018 384.454C447.098 385.077 459.979 387.906 472.117 392.82C491.133 400.81 515.49 410.329 517.008 421.355C518.526 432.381 498.369 494.404 494.945 509.63C491.521 524.856 491.133 530.175 491.133 530.175C491.133 530.175 494.557 533.211 493.804 535.882C493.05 538.553 488.85 551.474 488.85 551.474C482.846 552.862 476.738 553.755 470.588 554.145C464.339 554.254 458.096 553.742 451.949 552.615C451.949 552.615 450.807 539.683 451.949 536.636C453.09 533.588 457.279 530.175 457.656 527.893C458.032 525.61 459.562 489.462 459.562 475.388C459.562 461.315 467.552 438.864 467.552 438.864C467.552 438.864 429.886 437.334 418.848 436.193C407.811 435.052 381.182 409.564 380.418 397.009C379.653 384.454 409.672 370.757 427.934 377.982Z" fill="#2C2F2F" stroke="#2C2F2F" stroke-linecap="round" stroke-linejoin="round"/>
<path d="M489.238 546.908C489.238 546.908 485.814 540.448 481.625 543.484C477.436 546.52 476.683 550.72 474.4 550.72C472.117 550.72 451.949 546.908 451.949 546.908C451.949 546.908 446.619 567.841 448.525 570.124C450.431 572.407 467.929 574.302 475.542 575.443C483.155 576.584 499.888 580.773 510.925 580.773C521.962 580.773 520.056 572.784 517.385 570.124C514.714 567.465 495.699 557.181 493.039 553.757C491.431 551.681 490.149 549.371 489.238 546.908V546.908Z" fill="white"/>
<path d="M519.348 575.9C514.811 576.859 510.186 577.344 505.549 577.349C495.653 577.349 487.663 573.548 475.108 571.265C465.235 569.462 452.999 566.494 448.239 565.307C447.977 567.693 447.988 569.531 448.479 570.124C450.385 572.407 467.883 574.302 475.496 575.443C483.109 576.584 499.842 580.773 510.879 580.773C516.814 580.773 519.006 578.456 519.348 575.9Z" fill="#2C2F2F" stroke="#2C2F2F" stroke-linecap="round" stroke-linejoin="round"/>
<path d="M349.554 271.456C349.554 271.456 326.727 280.21 318.36 285.917C309.994 291.624 315.313 313.31 315.313 325.478C315.313 337.645 313.03 370.38 312.653 376.84C312.276 383.301 320.643 392.067 326.35 395.491C332.057 398.915 380.76 400.81 393.692 400.81C406.624 400.81 434.406 392.443 432.123 367.709C429.84 342.975 421.85 323.96 420.709 319.771C419.568 315.582 419.179 301.897 419.568 298.084C419.956 294.272 422.992 282.869 417.285 277.539C411.578 272.209 387.609 266.125 376.571 266.513C365.534 266.901 349.554 271.456 349.554 271.456Z" fill="#00ADC0"/>
<path d="M352.545 296.532C353.1 298.09 353.906 299.548 354.93 300.846C358.136 304.842 361.566 308.653 365.203 312.26C373.501 320.57 386.558 326.105 386.558 326.105C386.558 326.105 390.907 303.175 391.695 292.891C392.482 282.607 386.946 274.309 377.849 271.204C368.753 268.1 352.157 271.593 349.783 277.927C348.048 282.641 350.992 292.16 352.545 296.532Z" fill="#D6D6D6"/>
<path d="M353.789 264.413C352.995 264.45 352.217 264.652 351.506 265.007C349.796 265.873 348.475 267.352 347.808 269.15C345.822 273.898 344.247 279.046 344.247 279.046C345.387 284.956 346.974 290.771 348.995 296.441C350.983 301.826 352.462 307.386 353.412 313.048C353.412 313.048 367.645 302.365 370.408 300.002C373.012 298.033 375.794 296.31 378.717 294.854C378.717 294.854 388.202 299.602 392.551 302.365C396.899 305.127 400.46 307.512 400.46 307.512C399.965 299.683 398.367 291.964 395.712 284.582C391.364 272.711 389.389 269.15 387.015 266.787C384.641 264.425 366.447 257.69 353.789 264.413Z" fill="white"/>
<path d="M386.513 207.766C386.513 207.766 389.321 204.17 390.941 207.012C391.839 208.621 392.928 210.116 394.183 211.464C394.183 211.464 397.413 213.085 397.824 215.915C398.103 217.655 398.236 219.415 398.224 221.177C398.224 222.387 401.865 223.197 401.865 225.229C401.865 227.261 399.844 228.06 399.445 230.08C399.045 232.1 400.78 233.892 399.034 236.552C397.288 239.211 399.194 238.241 397.288 239.223C395.381 240.204 393.373 241.414 393.373 241.414L384.059 210.596L386.513 207.766Z" fill="#C7C7C7"/>
<path d="M355.923 193.818C355.923 193.818 345.149 196.968 340.652 205.951C336.154 214.934 335.709 221.679 337.958 229.315C340.206 236.951 348.733 258.512 351.438 264.801C354.143 271.09 355.033 282.778 360.421 289.912C365.808 297.046 378.843 303.392 378.843 303.392C378.843 303.392 388.716 289.912 390.519 283.178C392.322 276.443 388.716 262.964 388.716 262.964C388.716 262.964 398.6 250.831 397.253 239.154C395.906 227.478 388.716 212.24 386.513 207.766C384.31 203.292 376.138 189.332 355.923 193.818Z" fill="#FFBDA7"/>
<path d="M363.685 211.818C363.685 211.818 371.595 207.869 376.731 209.056" stroke="#D38B73" stroke-linecap="round" stroke-linejoin="round"/>
<path d="M360.512 210.243C360.512 210.243 367.634 206.681 372.77 206.681" stroke="#D38B73" stroke-linecap="round" stroke-linejoin="round"/>
<path opacity="0.6" d="M388.716 263.009C388.716 263.009 382.655 266.787 377.119 266.787C371.583 266.787 361.299 262.439 358.138 259.265C358.138 259.265 367.509 269.995 377.462 272.677C387.414 275.359 390.097 271.147 390.097 271.147L388.716 263.009Z" fill="#2C2F2F" stroke="#2C2F2F" stroke-linecap="round" stroke-linejoin="round"/>
<path d="M340.309 239.725C340.614 239.545 340.907 239.347 341.188 239.131C342.569 238.115 345.057 235.901 344.76 233.253C344.361 229.612 344.76 227.546 342.74 224.75C340.72 221.953 337.478 215.847 337.478 215.847C335.082 215.652 332.685 216.22 330.63 217.468C327.799 219.488 328.598 221.109 327.799 223.939C327 226.77 324.957 224.75 323.747 228.802C322.537 232.854 324.147 235.273 325.768 236.084C327.388 236.894 326.179 239.325 326.179 242.932C326.24 244.239 326.76 245.483 327.647 246.445C328.534 247.407 329.732 248.026 331.029 248.194C332.251 248.194 332.65 249.815 334.271 251.436C335.892 253.056 341.119 251.242 341.119 251.242C341.119 251.242 343.573 249.815 343.973 248.194C344.372 246.573 340.309 239.725 340.309 239.725Z" fill="#C7C7C7"/>
<path d="M343.802 239.2C343.802 239.2 338.403 232.009 334.808 236.05C331.212 240.09 337.501 249.975 341.097 251.321C344.692 252.668 349.189 249.039 349.189 249.039" fill="#FFBDA7"/>
<path d="M376.594 217.627C376.594 217.627 376.138 221.679 377.039 223.026C377.941 224.373 383.328 226.622 382.427 230.662C381.525 234.703 376.138 238.298 373.444 234.703" stroke="#D38B73" stroke-linecap="round" stroke-linejoin="round"/>
<path d="M369.848 241.893C372.465 242.602 375.234 242.509 377.797 241.628C380.361 240.747 382.601 239.118 384.23 236.951" stroke="#D38B73" stroke-linecap="round" stroke-linejoin="round"/>
<path d="M356.38 223.312C356.252 223.309 356.126 223.29 356.003 223.254C355.851 223.211 355.709 223.137 355.587 223.035C355.465 222.934 355.366 222.809 355.295 222.667C355.224 222.525 355.183 222.37 355.176 222.212C355.168 222.054 355.193 221.896 355.25 221.748C357.259 215.721 364.895 214.694 365.214 214.66C365.526 214.62 365.841 214.707 366.089 214.899C366.337 215.092 366.499 215.375 366.538 215.687C366.578 215.999 366.492 216.313 366.299 216.562C366.106 216.81 365.823 216.972 365.511 217.011C365.443 217.011 359.039 217.89 357.521 222.501C357.448 222.744 357.296 222.955 357.09 223.102C356.883 223.249 356.633 223.322 356.38 223.312Z" fill="#C7C7C7"/>
<path d="M385.577 215.835C385.422 215.838 385.268 215.809 385.125 215.75C384.982 215.691 384.852 215.604 384.744 215.493C383.871 214.643 382.761 214.079 381.56 213.875C380.359 213.671 379.125 213.837 378.021 214.352C377.739 214.492 377.413 214.515 377.115 214.416C376.816 214.316 376.569 214.102 376.429 213.821C376.288 213.539 376.265 213.213 376.364 212.915C376.464 212.616 376.678 212.369 376.959 212.229C378.505 211.487 380.242 211.24 381.934 211.522C383.625 211.804 385.188 212.601 386.41 213.804C386.526 213.911 386.618 214.04 386.682 214.185C386.745 214.329 386.777 214.485 386.777 214.643C386.777 214.8 386.745 214.956 386.682 215.101C386.618 215.245 386.526 215.375 386.41 215.482C386.303 215.594 386.173 215.684 386.03 215.745C385.887 215.805 385.732 215.836 385.577 215.835Z" fill="#C7C7C7"/>
<path d="M368.958 228.414C368.692 230.071 368.072 231.652 367.141 233.048C366.209 234.445 364.988 235.624 363.559 236.506" stroke="#D38B73" stroke-linecap="round" stroke-linejoin="round"/>
<path d="M382.883 226.165C385.283 227.852 388.056 228.932 390.964 229.315" stroke="#D38B73" stroke-linecap="round" stroke-linejoin="round"/>
<path d="M365.968 226.953C366.367 228.379 366.036 229.715 365.226 229.943C364.415 230.171 363.457 229.19 363.057 227.763C362.658 226.336 362.989 224.989 363.799 224.773C364.609 224.556 365.58 225.526 365.968 226.953Z" fill="#2C2F2F"/>
<path d="M383.876 221.873C384.264 223.3 383.933 224.636 383.134 224.864C382.335 225.092 381.354 224.11 380.966 222.672C380.578 221.234 380.897 219.91 381.696 219.682C382.495 219.454 383.477 220.435 383.876 221.873Z" fill="#2C2F2F"/>
<path d="M366.162 223.574L360.409 227.409" stroke="#2C2F2F" stroke-linecap="round" stroke-linejoin="round"/>
<path d="M379.847 220.298L386.147 220.024" stroke="#2C2F2F" stroke-linecap="round" stroke-linejoin="round"/>
<path d="M501.383 381.737C501.383 381.737 509.829 385.526 511.381 386.622C512.934 387.718 517.202 394.384 517.556 396.461C517.91 398.538 517.488 399.394 516.187 398.641C514.885 397.888 511.199 393.471 508.345 390.457C505.492 387.444 501.851 385.549 500.96 383.757C500.07 381.965 499.967 381.395 501.383 381.737Z" fill="#FFBDA7" stroke="#DD977F" stroke-linecap="round" stroke-linejoin="round"/>
<path d="M476.078 372.697C476.078 372.697 489.991 377.263 494.877 378.712C498.532 379.845 501.895 381.766 504.727 384.339C506.119 385.652 513.801 394.361 514.634 396.895C515.467 399.429 516.62 406.209 515.193 406.836C513.767 407.464 512.306 405.798 511.666 404.359C510.936 403.009 510.072 401.736 509.087 400.559C509.087 400.559 510.81 406.049 510.514 408.811C510.217 411.573 509.372 413.251 507.09 413.639C504.807 414.027 502.25 410.215 500.481 406.676C499.405 404.534 498.021 402.561 496.372 400.821L490.916 398.287C491.854 401.034 493.086 403.67 494.591 406.151C496.68 409.267 499.157 409.998 498.255 411.699C497.353 413.399 493.199 413.73 491.247 411.368C489.295 409.005 486.156 406.448 484.399 403.275C482.641 400.102 478.566 391.53 478.566 391.53L467.426 389.59C467.426 389.59 460.909 387.627 460.486 380.755C460.064 373.884 473.065 370.905 476.078 372.697Z" fill="#FFBDA7" stroke="#DD977F" stroke-linecap="round" stroke-linejoin="round"/>
<path d="M498.849 395.011C498.849 395.011 503.837 401.483 505.48 404.291C507.124 407.099 507.101 413.662 507.101 413.662" stroke="#DD977F" stroke-linecap="round" stroke-linejoin="round"/>
<path d="M509.087 400.581L504.647 390.537" stroke="#DD977F" stroke-linecap="round" stroke-linejoin="round"/>
<path d="M363.685 396.244C363.685 396.244 389.172 393.208 402.104 397.774C415.036 402.339 427.603 418.319 427.603 431.627C427.603 444.936 424.932 517.997 425.697 519.903C426.462 521.809 430.639 522.186 430.639 525.986C430.639 529.787 427.603 549.579 427.603 549.579C427.603 549.579 409.717 556.039 403.634 556.039H397.539C397.539 556.039 388.796 532.835 389.172 529.034C389.549 525.233 391.832 522.186 391.832 520.279C391.832 518.373 380.806 478.425 380.806 466.634V440.382L359.496 435.816C359.496 435.816 349.988 408.8 363.685 396.244Z" fill="#2C2F2F" stroke="#2C2F2F" stroke-linecap="round" stroke-linejoin="round"/>
<path d="M443.149 566.7C443.149 566.7 431.735 553.38 427.169 546.155C422.604 538.93 414.237 534.741 409.295 538.542C404.353 542.343 404.341 551.862 404.341 551.862L395.975 550.332C395.975 550.332 399.022 560.605 400.54 566.312C402.058 572.019 404.341 575.831 414.237 577.349C424.133 578.867 440.489 580.009 445.055 575.443C449.62 570.877 443.149 566.7 443.149 566.7Z" fill="white"/>
<path d="M445.055 575.443C445.788 574.846 446.308 574.027 446.537 573.109C446.765 572.191 446.69 571.224 446.322 570.352C444.194 571.56 441.991 572.627 439.725 573.548C431.358 576.972 419.944 576.208 410.436 573.16C406.921 572.152 403.69 570.338 400.997 567.864C402.561 572.715 405.277 575.968 414.237 577.349C424.179 578.867 440.489 580.009 445.055 575.443Z" fill="#2C2F2F" stroke="#2C2F2F" stroke-linecap="round" stroke-linejoin="round"/>
<path d="M458.101 374.911C458.101 374.911 457.348 383.94 457.097 386.691C456.846 389.441 458.352 392.717 459.379 393.208C460.407 393.699 460.886 392.717 460.886 390.457V386.691C460.852 385.937 458.101 374.911 458.101 374.911Z" fill="#FFBDA7" stroke="#DD977F" stroke-linecap="round" stroke-linejoin="round"/>
<path d="M473.099 356.387C473.099 352.46 478.327 344.185 478.327 344.185L480.347 316.449L478.977 311.073L472.882 310.64C470.474 318.721 462.016 347.164 460.897 351.593C459.597 357.611 458.724 363.714 458.284 369.855C458.284 372.024 458.284 382.045 459.163 385.972C460.041 389.898 466.125 393.802 466.125 393.802C466.125 393.802 474.343 393.802 475.644 392.934C476.945 392.067 473.647 389.168 473.647 389.168C473.156 389.168 471.706 378.416 474.788 375.083C477.276 372.423 484.376 375.516 484.376 375.516C484.376 375.516 482.63 370.723 480.45 366.385C478.269 362.048 473.099 360.302 473.099 356.387Z" fill="#FFBDA7" stroke="#D89179" stroke-linecap="round" stroke-linejoin="round"/>
<path d="M474.4 393.71C474.4 393.71 467.883 390.206 467.129 388.7C466.376 387.193 466.136 375.665 466.136 375.665" stroke="#DD977F" stroke-linecap="round" stroke-linejoin="round"/>
<path d="M467.62 393.71C467.62 393.71 462.358 388.197 462.358 386.189C462.358 384.18 461.103 375.665 461.103 375.665" stroke="#DD977F" stroke-linecap="round" stroke-linejoin="round"/>
<path d="M342.957 399.52L299.459 399.006C298.338 398.915 297.212 398.915 296.092 399.006L288.741 399.554C285.847 399.773 283.029 400.58 280.458 401.926C277.887 403.272 275.618 405.128 273.789 407.382C271.961 409.636 270.612 412.239 269.825 415.032C269.038 417.825 268.829 420.75 269.212 423.626L288.615 569.302C288.751 570.335 289.258 571.283 290.041 571.97C290.825 572.657 291.831 573.035 292.873 573.035H347.089L342.957 399.52Z" fill="#333333" stroke="#2C2F2F" stroke-linecap="round" stroke-linejoin="round"/>
<path d="M367.566 573.012C368.697 573.009 369.782 572.56 370.585 571.764C371.388 570.967 371.845 569.886 371.857 568.754L373.227 420.522C373.265 417.564 372.688 414.63 371.531 411.908C370.375 409.185 368.664 406.733 366.508 404.707C364.353 402.682 361.799 401.127 359.01 400.141C356.221 399.156 353.257 398.762 350.308 398.984L342.957 399.531C340.063 399.75 337.245 400.557 334.674 401.903C332.103 403.249 329.834 405.106 328.005 407.359C326.177 409.613 324.828 412.216 324.041 415.009C323.254 417.802 323.045 420.727 323.428 423.603L342.832 569.279C342.967 570.312 343.474 571.261 344.257 571.947C345.041 572.634 346.047 573.012 347.089 573.012H367.566Z" fill="#666666"/>
<path d="M329.5 280C329.5 280 313.03 282.105 306.946 291.236C300.862 300.367 295.909 331.573 294.767 339.563C293.626 347.552 288.684 375.699 290.59 381.029C292.496 386.36 297.438 387.113 306.569 387.501C315.701 387.889 319.878 382.935 321.784 377.229C324.532 369 328.632 318.253 328.632 318.253" fill="#0A93A3"/>
<path d="M307.323 362.002C309.606 362.767 330.151 367.709 331.68 371.898C332.164 372.966 332.314 374.156 332.11 375.311C331.906 376.465 331.359 377.532 330.539 378.37C330.539 378.37 323.69 394.726 317.595 396.244C311.5 397.762 297.815 393.585 290.967 390.537C284.118 387.49 290.967 364.285 291.731 363.144" fill="#0A93A3"/>
<path d="M335.15 382.935C335.15 382.935 336.668 380.653 334.762 379.511C332.856 378.37 329.82 374.946 326.396 374.946C322.971 374.946 316.888 377.982 315.358 384.454C313.829 390.925 314.982 395.491 317.641 396.244C320.301 396.997 326.019 398.527 328.678 398.527C331.338 398.527 333.244 392.82 333.621 391.679C333.997 390.537 335.15 382.935 335.15 382.935Z" fill="#00ADC0"/>
<path d="M359.827 385.218C359.827 385.218 366.299 393.208 369.346 394.726C372.394 396.244 375.053 398.15 372.77 400.433C370.488 402.716 365.157 401.574 362.874 398.527C360.592 395.479 359.827 385.218 359.827 385.218Z" fill="#FFBDA7" stroke="#DD977F" stroke-linecap="round" stroke-linejoin="round"/>
<path d="M337.764 382.936C337.764 382.936 355.649 380.265 358.309 380.265C360.968 380.265 365.157 399.292 365.534 402.339C365.911 405.387 367.44 407.281 365.534 408.799C364.705 409.611 363.644 410.146 362.498 410.329C361.451 411.222 360.301 411.989 359.074 412.612C357.932 412.988 353.743 412.224 353.743 412.224C353.743 412.224 353.367 413.753 350.319 413.365C347.272 412.977 336.999 400.056 336.999 400.056C336.999 400.056 329.397 398.15 326.35 395.491C323.302 392.831 324.444 388.254 326.35 385.218C328.256 382.182 332.434 381.406 332.434 381.406L337.764 382.936Z" fill="#FFBDA7" stroke="#DD977F" stroke-linecap="round" stroke-linejoin="round"/>
<path d="M354.508 389.019L364.016 409.564" stroke="#DD977F" stroke-linecap="round" stroke-linejoin="round"/>
<path d="M347.272 392.443L359.074 412.612" stroke="#DD977F" stroke-linecap="round" stroke-linejoin="round"/>
<path d="M353.743 412.224L342.706 396.244" stroke="#DD977F" stroke-linecap="round" stroke-linejoin="round"/>
</svg>
